<?xml version="1.0" encoding="UTF-8"?>
<svg id="Layer_1" data-name="Layer 1" xmlns="http://www.w3.org/2000/svg" width="260.63" height="127.68" viewBox="0 0 260.63 127.68">
  <defs>
    <style>
      .cls-1 {
        fill: #293172;
      }

      .cls-2 {
        fill: #f8ca10;
      }

      .cls-2, .cls-3, .cls-4 {
        fill-rule: evenodd;
      }

      .cls-3 {
        fill: #09b26a;
      }

      .cls-4 {
        fill: #ed287e;
      }
    </style>
  </defs>
  <g>
    <g>
      <path class="cls-3" d="M31.22,109.12l-20.51-7.64c-5.92-2.2-10.71-9.43-10.71-16.14v-23.26c0-6.71,4.8-10.37,10.71-8.16l20.51,7.64c5.92,2.2,10.71,9.43,10.71,16.14v23.26c0,6.71-4.8,10.37-10.71,8.16Z"/>
      <path class="cls-4" d="M57.89,109.12l20.51-7.64c5.92-2.2,10.71-9.43,10.71-16.14v-23.26c0-6.71-4.8-10.37-10.71-8.16l-20.51,7.64c-5.92,2.2-10.71,9.43-10.71,16.14v23.26c0,6.71,4.8,10.37,10.71,8.16Z"/>
    </g>
    <path class="cls-2" d="M53.12,58.23l24.15-8.51c4.73-1.67,4.73-4.37,0-6.04l-24.15-8.51c-4.73-1.67-12.4-1.67-17.13,0l-24.15,8.51c-4.73,1.67-4.73,4.37,0,6.04l24.15,8.51c4.73,1.67,12.4,1.67,17.13,0Z"/>
  </g>
  <g>
    <path class="cls-1" d="M128.16,109.24c-5.04-.12-13.76-3.07-18.92-9.46-.25-.37-.37-.74-.37-1.23,0-.86,.49-1.84,1.11-1.84,.12,0,.37,0,.49,.25,4.79,3.81,10.44,5.9,16.1,5.9,8.36,0,16.59-4.55,21.5-14.99,1.47-2.95,2.09-5.28,2.09-7,0-6.51-8.23-5.78-11.67-8.48-2.09,6.64-5.53,17.94-5.53,22.73,0,.61-.49,1.11-1.11,1.23h-.98c-3.07,0-6.51-.49-7.13-3.2-.12-.49-.12-1.11-.12-1.72,0-9.22,9.46-36,12.41-42.76,.37-.98,1.6-1.35,2.95-1.35,3.07,0,7.37,1.84,7.37,3.81l-.12,.49-6.14,15.98,1.23,.12c4.18,0,9.22-3.69,12.9-8.48,2.83-3.56,5.28-8.6,5.28-12.78s-2.33-7.5-8.85-8.11l-4.18-.25c-15.36,0-36.74,7.13-39.94,23.1-.12,.74-.49,1.11-1.11,1.11l-.61-.12c-2.95-.74-5.9-6.88-5.9-11.8,0-1.97,.49-3.81,1.72-4.79,11.18-9.71,25.07-13.15,39.32-13.15h1.47c11.18,0,26.91,3.44,26.91,16.96v.12c-.12,10.32-7.86,20.03-17.45,23.47,6.02,2.33,8.6,6.64,8.6,11.55,0,2.95-.98,6.14-2.58,9.46-4.92,9.46-17.33,15.24-27.77,15.24h-.98Z"/>
    <path class="cls-1" d="M172.89,103.22c-2.95,0-5.78-.37-7-2.95-.61-1.35-.86-3.19-.86-5.28,0-14.99,12.66-46.45,14.62-51,.62-.98,1.84-1.47,3.32-1.47,3.19,0,7.25,2.09,7.25,3.81l-.12,.37c-1.47,3.93-14.38,37.72-15.73,50.38l-.12,2.46c0,.74,0,1.23,.25,1.23h.25c1.6,0,3.93-3.19,4.67-4.18,3.81-5.28,7.99-14.25,10.44-19.42,.25-.61,.61-.74,1.11-.74,.12,0,.37,0,.61,.12,.37,.25,.61,.61,.61,.98,0,.25,0,.37-.12,.61-2.58,5.65-6.64,14.25-10.81,19.78-1.35,1.97-4.05,5.16-6.64,5.28h-1.72Z"/>
    <path class="cls-1" d="M221.8,101.99c0-.25,.12-.61,.37-.86,3.81-4.3,8.23-9.71,12.9-15.48-.86-6.51-1.47-14.13-1.84-19.91-3.44,7.99-9.34,19.78-17.08,19.78h-.37c-2.7,7.74-8.72,17.57-17.2,17.57-7.74,0-10.94-6.27-10.94-14.13,0-12.66,8.48-29.25,19.91-29.25,.98,0,1.97,.12,3.07,.37,5.9,1.47,7.62,7.01,7.62,12.78,0,3.56-.74,7.37-1.6,10.2,7.13-.49,13.15-14.99,15.24-20.15,.74-1.84,4.3-3.19,7.13-3.19,2.09,0,3.69,.61,3.69,2.33,0,3.07,.25,7.74,.74,13.39,4.55-5.65,9.09-11.18,12.9-15.24,.25-.37,.98-.61,1.84-.61,1.11,0,2.46,.37,2.46,1.23,0,.25-.12,.49-.49,.86l-16.1,19.42c.25,2.46,.98,19.42,5.16,19.54,.86,0,1.11,.61,1.11,1.23s-.37,1.23-1.11,1.23c-5.9,0-8.36-.12-10.08-2.83-1.11-1.72-2.21-5.28-3.07-9.58l-9.83,11.92c-.25,.37-1.11,.61-1.84,.61-1.23,0-2.58-.37-2.58-1.23Zm-11.43-18.43c-1.97-1.47-2.7-3.69-2.7-5.78,0-3.56,2.21-7.13,4.55-7.74-.37-1.6-1.11-2.83-2.83-2.83h-.49c-5.9,.98-12.41,17.7-12.41,26.54,0,3.07,.74,5.28,2.58,5.53h.37c4.79,0,9.58-11.92,10.94-15.73Z"/>
  </g>
</svg>