<?xml version="1.0" encoding="UTF-8"?>
<svg id="Layer_1" data-name="Layer 1" xmlns="http://www.w3.org/2000/svg" width="89.11" height="75.84" viewBox="0 0 89.11 75.84">
  <defs>
    <style>
      .cls-1 {
        fill: #f8ca10;
      }

      .cls-1, .cls-2, .cls-3 {
        fill-rule: evenodd;
      }

      .cls-2 {
        fill: #09b26a;
      }

      .cls-3 {
        fill: #ed287e;
      }
    </style>
  </defs>
  <g>
    <path class="cls-2" d="M31.22,75.19l-20.51-7.64C4.8,65.35,0,58.13,0,51.42V28.16c0-6.71,4.8-10.37,10.71-8.16l20.51,7.64c5.92,2.2,10.71,9.43,10.71,16.14v23.26c0,6.71-4.8,10.37-10.71,8.16Z"/>
    <path class="cls-3" d="M57.89,75.19l20.51-7.64c5.92-2.2,10.71-9.43,10.71-16.14V28.16c0-6.71-4.8-10.37-10.71-8.16l-20.51,7.64c-5.92,2.2-10.71,9.43-10.71,16.14v23.26c0,6.71,4.8,10.37,10.71,8.16Z"/>
  </g>
  <path class="cls-1" d="M53.12,24.3l24.15-8.51c4.73-1.67,4.73-4.37,0-6.04L53.12,1.25c-4.73-1.67-12.4-1.67-17.13,0L11.84,9.76c-4.73,1.67-4.73,4.37,0,6.04l24.15,8.51c4.73,1.67,12.4,1.67,17.13,0Z"/>
</svg>